<?xml version="1.0" encoding="UTF-8"?>
<svg version="1.1" xmlns="http://www.w3.org/2000/svg" width="3059" height="1849">
<path d="M0 0 C0.72500198 -0.00350464 1.45000397 -0.00700928 2.19697571 -0.01062012 C4.57534616 -0.01936112 6.953414 -0.01360612 9.33178711 -0.00683594 C11.01403357 -0.00818695 12.69627964 -0.0101311 14.37852478 -0.01263428 C17.90635898 -0.01557713 21.43409171 -0.01132305 24.96191406 -0.00195312 C29.41294395 0.00931098 33.86373148 0.00276107 38.31475258 -0.00881863 C56.70903206 -0.04967858 75.01770079 -0.07763888 93.29663086 2.25878906 C94.42332687 2.40220734 94.42332687 2.40220734 95.57278442 2.54852295 C100.50011857 3.19843217 105.39915365 3.97735031 110.29663086 4.82128906 C111.04066162 4.94783875 111.78469238 5.07438843 112.55126953 5.20477295 C156.82779169 12.79340966 201.17828021 24.56064736 241.29663086 45.25878906 C242.52339764 45.86907373 243.75127062 46.47713967 244.98022461 47.08300781 C265.11772416 57.06244126 284.36796121 67.90563641 303.10913086 80.32128906 C303.97619659 80.89313431 303.97619659 80.89313431 304.86077881 81.47653198 C311.53982256 85.88965374 317.99051931 90.46892335 324.18994141 95.54174805 C326.65565393 97.55140805 329.2019189 99.41949957 331.79663086 101.25878906 C354.73925807 117.82490396 377.16874207 137.68962225 395.55834961 159.23925781 C397.57261856 161.57943095 399.65240478 163.85346561 401.73413086 166.13378906 C407.74394505 172.79773269 413.27276887 179.80941028 418.61303711 187.01660156 C420.32298075 189.29388149 422.06933043 191.54093393 423.81982422 193.78710938 C429.24445313 200.76794218 434.3803253 207.90861339 439.29663086 215.25878906 C439.7800293 215.97921387 440.26342773 216.69963867 440.76147461 217.44189453 C455.71010211 239.81357802 469.74872674 263.45604967 480.29663086 288.25878906 C480.88104061 289.59222132 481.46569947 290.92554442 482.05053711 292.25878906 C494.92706511 321.90856215 504.28342624 352.73214028 511.29663086 384.25878906 C511.51947754 385.23928223 511.74232422 386.21977539 511.97192383 387.22998047 C518.08283948 414.39908453 521.00235014 442.44852973 521.85913086 470.25878906 C521.92390625 472.17304687 521.92390625 472.17304687 521.98999023 474.12597656 C522.41415528 487.2952914 522.24404588 500.30129956 521.42163086 513.44628906 C521.37750061 514.17024872 521.33337036 514.89420837 521.28790283 515.6401062 C520.63863652 526.22648564 519.80408068 536.75475044 518.29663086 547.25878906 C514.6039824 548.95291421 511.76267266 549.5012035 507.71118164 549.4699707 C506.58028107 549.46663223 505.44938049 549.46329376 504.28421021 549.45985413 C503.03276215 549.44635422 501.78131409 549.43285431 500.49194336 549.41894531 C499.12279735 549.41225905 497.7536456 549.40667746 496.38449097 549.40208435 C493.3577589 549.39054984 490.33112453 549.37352749 487.30444336 549.35253906 C478.59621719 549.29386716 469.88783425 549.27876476 461.17944336 549.26269531 C459.72458401 549.25963064 459.72458401 549.25963064 458.24033356 549.25650406 C439.67232247 549.22111479 421.10611402 549.32969739 402.53881836 549.47363281 C401.82102534 549.47916774 401.10323232 549.48470267 400.36368799 549.49040532 C386.52082394 549.59737956 372.67802359 549.71187102 358.83526611 549.83181763 C350.53074102 549.90372607 342.22620008 549.9734134 333.92163086 550.04003906 C333.23293041 550.04558579 332.54422997 550.05113252 331.83465981 550.05684733 C310.01034249 550.23134558 288.18797877 550.28173017 266.36303711 550.25878906 C240.47413467 550.23160363 214.58738538 550.31382556 188.69897461 550.47753906 C187.82554806 550.48304968 186.95212152 550.4885603 186.0522275 550.4942379 C175.46254089 550.56132753 164.87287949 550.63197253 154.28322661 550.70417166 C142.48195483 550.78455853 130.68066001 550.86144784 118.87936497 550.9383316 C117.11762046 550.94981319 115.35587596 550.96129542 113.59413147 550.97277832 C112.73383207 550.97838099 111.87353268 550.98398366 110.9871636 550.98975611 C105.96296331 551.0225517 100.93876801 551.05600883 95.91457641 551.09011078 C92.81542797 551.11110214 89.71627741 551.13176908 86.61712646 551.15238762 C85.1986385 551.16190711 83.78015152 551.17157519 82.36166573 551.18141365 C80.40814101 551.19495102 78.45461222 551.20789658 76.50108337 551.2208252 C75.41671462 551.22819954 74.33234587 551.23557388 73.21511745 551.24317169 C67.57562083 551.26564825 61.93616427 551.26169468 56.29663086 551.25878906 C56.29950627 552.14597744 56.30238168 553.03316581 56.30534422 553.94723868 C56.47537763 606.48848772 56.63497176 659.02975958 56.78094379 711.57108127 C56.79846622 717.87486168 56.81607618 724.17864185 56.83374023 730.48242188 C56.83725547 731.73743084 56.84077071 732.9924398 56.84439246 734.28547934 C56.90157582 754.62648868 56.96585557 774.96746975 57.03274186 795.30844924 C57.10117756 816.16847908 57.1620244 837.02852101 57.21577489 857.88859391 C57.24920263 870.76816155 57.28860293 883.64768282 57.33555923 896.52720836 C57.36715992 905.35015814 57.39141257 914.17310872 57.40980341 922.99609587 C57.42064544 928.0921962 57.43480708 933.18823233 57.4576664 938.28429413 C57.4785021 942.94511149 57.49015963 947.60585625 57.49436085 952.26671746 C57.49753287 953.95723187 57.50414113 955.64774386 57.5144424 957.33822986 C57.52790462 959.6280157 57.52909605 961.9174853 57.52710915 964.20730209 C57.53090635 965.48164352 57.53470355 966.75598495 57.53861582 968.06894279 C57.30870536 971.09962296 57.06637717 972.81214786 55.29663086 975.25878906 C51.67207071 976.46697578 48.32986651 976.43951909 44.55444336 976.46191406 C43.77183136 976.46897369 42.98921936 976.47603333 42.18289185 976.48330688 C-1.6012612 976.78533316 -44.67695681 972.21141092 -87.20336914 961.50878906 C-88.20875732 961.25637451 -89.21414551 961.00395996 -90.25 960.74389648 C-97.64062638 958.85554514 -104.96511611 956.78085159 -112.26586914 954.57128906 C-113.21075195 954.28608398 -114.15563477 954.00087891 -115.12915039 953.70703125 C-120.13777564 952.1599306 -124.90429681 950.38481758 -129.70336914 948.25878906 C-132.24072309 947.2853388 -134.77958039 946.3258897 -137.32836914 945.38378906 C-138.74642905 944.85408511 -140.16439664 944.32413398 -141.58227539 943.79394531 C-144.08824433 942.85905507 -146.59602791 941.9298069 -149.10571289 941.00488281 C-185.98851148 927.19092982 -221.53963702 906.87177208 -253.07836914 883.44628906 C-253.88419434 882.85025879 -254.69001953 882.25422852 -255.52026367 881.64013672 C-262.68946867 876.31472567 -269.72825435 870.83510035 -276.70336914 865.25878906 C-277.65469727 864.53949219 -278.60602539 863.82019531 -279.58618164 863.07910156 C-280.28485352 862.47839844 -280.98352539 861.87769531 -281.70336914 861.25878906 C-281.70336914 860.59878906 -281.70336914 859.93878906 -281.70336914 859.25878906 C-282.53094727 858.906875 -282.53094727 858.906875 -283.37524414 858.54785156 C-286.31088224 856.92241436 -288.4874944 854.91369001 -290.95336914 852.63378906 C-291.46351563 852.16231445 -291.97366211 851.69083984 -292.49926758 851.20507812 C-297.77698621 846.27899809 -302.86214633 841.15759799 -307.91918945 836.00634766 C-311.12074934 832.76174295 -314.36167286 829.64014722 -317.81665039 826.66503906 C-321.32858376 823.63577229 -324.52754893 820.4426138 -327.64086914 817.00878906 C-328.15246582 816.4494165 -328.6640625 815.89004395 -329.19116211 815.3137207 C-333.11605394 810.98726621 -336.8569522 806.53095384 -340.51196289 801.97363281 C-342.75726096 799.19202469 -345.07106426 796.47843023 -347.39086914 793.75878906 C-357.2850813 781.90425717 -366.40764532 769.27717214 -374.70336914 756.25878906 C-375.13875 755.58879883 -375.57413086 754.91880859 -376.02270508 754.22851562 C-390.40630204 732.03971628 -402.87258635 708.37743418 -413.70336914 684.25878906 C-414.20622437 683.15132324 -414.20622437 683.15132324 -414.71923828 682.02148438 C-417.12247263 676.68749021 -419.25934745 671.29400494 -421.2824707 665.80322266 C-421.67837402 664.72935303 -421.67837402 664.72935303 -422.08227539 663.63378906 C-422.34927246 662.90804687 -422.61626953 662.18230469 -422.89135742 661.43457031 C-423.67075583 659.34617626 -424.47735056 657.27066775 -425.29321289 655.19628906 C-434.93518033 630.37023404 -441.78325157 604.40263123 -446.70336914 578.25878906 C-446.89624512 577.2473584 -447.08912109 576.23592773 -447.2878418 575.19384766 C-450.38836261 558.66404404 -452.26858351 542.01008747 -453.70336914 525.25878906 C-453.80053223 524.12803955 -453.89769531 522.99729004 -453.99780273 521.83227539 C-457.88684716 470.95701108 -453.607819 418.6528028 -440.70336914 369.25878906 C-440.39560547 368.07961914 -440.0878418 366.90044922 -439.77075195 365.68554688 C-431.23982916 333.2960139 -420.45114927 301.20372704 -404.8605957 271.47460938 C-403.49836083 268.86624572 -402.15988484 266.24617369 -400.82055664 263.62597656 C-395.83867648 253.92076952 -390.84312337 244.31079395 -384.91430664 235.14453125 C-383.40916254 232.80063346 -381.93206038 230.43977474 -380.45336914 228.07910156 C-370.24243454 211.8245334 -359.31545475 196.52564086 -347.42456055 181.46337891 C-346.19793053 179.89224854 -344.98843701 178.30767563 -343.79077148 176.71435547 C-343.1676709 175.88983887 -342.54457031 175.06532227 -341.90258789 174.21582031 C-341.33757568 173.45889893 -340.77256348 172.70197754 -340.19042969 171.92211914 C-339.69969971 171.37322021 -339.20896973 170.82432129 -338.70336914 170.25878906 C-338.04336914 170.25878906 -337.38336914 170.25878906 -336.70336914 170.25878906 C-336.37336914 169.26878906 -336.04336914 168.27878906 -335.70336914 167.25878906 C-335.04336914 167.25878906 -334.38336914 167.25878906 -333.70336914 167.25878906 C-333.46231445 166.5253125 -333.22125977 165.79183594 -332.97290039 165.03613281 C-331.53352822 161.88722939 -329.90124886 160.18821851 -327.39086914 157.82128906 C-324.78026305 155.30659981 -322.26472417 152.85292925 -320.01586914 150.00878906 C-317.70336914 147.25878906 -317.70336914 147.25878906 -314.76586914 144.82128906 C-312.42340835 142.86127085 -310.73094152 141.19884326 -308.82836914 138.88378906 C-306.1574965 135.67736869 -303.26042404 133.02089255 -300.08227539 130.32519531 C-297.73737493 128.28832776 -295.47392343 126.17800275 -293.21435547 124.04736328 C-286.53938957 117.76984722 -279.56381823 112.03764873 -272.28540039 106.4765625 C-269.28048957 104.16352312 -266.33247865 101.77689012 -263.37524414 99.40332031 C-261.70336914 98.25878906 -261.70336914 98.25878906 -259.70336914 98.25878906 C-259.70336914 97.59878906 -259.70336914 96.93878906 -259.70336914 96.25878906 C-257.38328656 94.5027213 -255.06011823 92.86857871 -252.64086914 91.25878906 C-251.9214917 90.7725708 -251.20211426 90.28635254 -250.4609375 89.78540039 C-248.21325364 88.26917785 -245.95905688 86.76307232 -243.70336914 85.25878906 C-242.34129634 84.34616838 -240.97931324 83.4334138 -239.61743164 82.52050781 C-237.10051593 80.83615402 -234.57952886 79.15816752 -232.05493164 77.48535156 C-230.02063987 76.13716157 -227.99589018 74.77835206 -225.97680664 73.40722656 C-225.20594727 72.88386719 -224.43508789 72.36050781 -223.64086914 71.82128906 C-223.01051758 71.38945313 -222.38016602 70.95761719 -221.73071289 70.51269531 C-219.70336914 69.25878906 -219.70336914 69.25878906 -216.82446289 67.82910156 C-213.68148692 66.24777949 -210.79039108 64.46775246 -207.82836914 62.57128906 C-162.00437304 33.95025566 -106.50470453 16.52558205 -53.57836914 7.44628906 C-52.72149506 7.29890289 -51.86462097 7.15151672 -50.98178101 6.99966431 C-41.28029865 5.3466552 -31.59706075 3.89437306 -21.79489136 2.98320007 C-18.3619002 2.64568676 -15.28695585 2.14651994 -11.93357849 1.24241638 C-7.9141536 0.21729029 -4.16008362 0.00509769 0 0 Z " fill="#9A3446" transform="translate(1589.703369140625,480.7412109375)"/>
<path d="M0 0 C0.16640138 2.19049741 0.32988518 4.38121654 0.4921875 6.57202148 C0.5835498 7.79195297 0.67491211 9.01188446 0.76904297 10.26878357 C1.65838227 24.63646652 0.64783457 39.07752927 0 53.4375 C-0.0966536 55.63345038 -0.19300996 57.82941387 -0.2890625 60.02539062 C-0.52261873 65.35041618 -0.75982939 70.67526888 -1 76 C-1.66 76 -2.32 76 -3 76 C-3 79.63 -3 83.26 -3 87 C-3.66 87 -4.32 87 -5 87 C-5 89.64 -5 92.28 -5 95 C-5.66 95 -6.32 95 -7 95 C-6.93941406 95.88558594 -6.87882812 96.77117187 -6.81640625 97.68359375 C-6.82978827 103.62967226 -8.51726615 109.32607176 -9.9375 115.0625 C-10.24743896 116.32876221 -10.55737793 117.59502441 -10.87670898 118.8996582 C-14.3959279 133.08963158 -18.62765161 147.05284231 -23 161 C-23.27166992 161.88220215 -23.54333984 162.7644043 -23.82324219 163.67333984 C-30.49114149 185.27501894 -40.04424124 205.74868216 -50 226 C-50.68387061 227.40741759 -51.36748864 228.81495795 -52.05078125 230.22265625 C-53.98271538 234.17530916 -55.97427762 238.09464956 -58 242 C-58.62696777 243.21042969 -58.62696777 243.21042969 -59.26660156 244.4453125 C-66.98105591 259.22353812 -75.6672721 273.19364337 -85 287 C-85.47663086 287.70608398 -85.95326172 288.41216797 -86.44433594 289.13964844 C-90.79149511 295.5540797 -95.26701344 301.86370206 -100 308 C-100.52980469 308.69222656 -101.05960938 309.38445312 -101.60546875 310.09765625 C-111.30228328 322.67910668 -121.63030663 334.60966028 -132.40527344 346.27148438 C-133.5172346 347.47673316 -134.6271004 348.68391704 -135.73535156 349.89257812 C-148.17472363 363.45667956 -148.17472363 363.45667956 -154.2890625 368.5390625 C-156.07458181 370.06368401 -157.6835836 371.68490364 -159.3125 373.375 C-163.05248028 377.18329043 -167.1616566 380.47343944 -171.31640625 383.81640625 C-173.55817936 385.6404982 -175.72603587 387.50661257 -177.875 389.4375 C-185.57632116 396.2392816 -193.91226813 402.37088742 -202.3828125 408.17578125 C-204.27553636 409.49503803 -206.1424357 410.85160677 -207.9921875 412.23046875 C-217.37447472 419.20968256 -227.32876799 424.93856307 -237.53662109 430.62207031 C-240.98090706 432.54868577 -244.39634701 434.52408338 -247.8125 436.5 C-251.8166649 438.81419417 -255.8628609 440.96467488 -260.0065918 443.01318359 C-261.82386747 443.91280739 -263.63126496 444.83231587 -265.4375 445.75390625 C-311.22678186 469 -311.22678186 469 -320 469 C-319.99967038 469.58493784 -319.99934076 470.16987567 -319.99900115 470.7725389 C-319.95999676 544.09561471 -320.1273845 617.41849109 -320.28752708 690.74135208 C-320.29751031 695.32610314 -320.30746125 699.91085427 -320.31738281 704.49560547 C-320.31984881 705.63450355 -320.3223148 706.77340162 -320.32485552 707.94681177 C-320.36497252 726.57406751 -320.39758072 745.20132941 -320.42749982 763.82860401 C-320.45855536 783.06909243 -320.49709591 802.30955496 -320.54279006 821.55001426 C-320.57062774 833.36735074 -320.59268046 845.18466845 -320.60726251 857.00202885 C-320.61776131 865.05255931 -320.63553678 873.10305269 -320.65916704 881.15355524 C-320.67258039 885.79628623 -320.68270468 890.43896512 -320.68421364 895.08171654 C-320.68566325 899.32428467 -320.69618994 903.56672699 -320.71413441 907.80925652 C-320.71900729 909.34778639 -320.72046931 910.88633139 -320.71827881 912.42486742 C-320.71579998 914.50646542 -320.72545287 916.58765708 -320.73828697 918.66920853 C-320.74056529 919.82775951 -320.74284362 920.98631049 -320.74519098 922.17996907 C-321 925 -321 925 -323 928 C-323.38499891 929.65549531 -323.72793135 931.3222433 -324 933 C-324.66 933 -325.32 933 -326 933 C-326 934.32 -326 935.64 -326 937 C-326.66 937 -327.32 937 -328 937 C-328 937.66 -328 938.32 -328 939 C-328.66 939 -329.32 939 -330 939 C-330 939.66 -330 940.32 -330 941 C-333.37097383 942.49821059 -335.20442119 943 -339 943 C-339 943.66 -339 944.32 -339 945 C-433.05 945 -527.1 945 -624 945 C-624 944.34 -624 943.68 -624 943 C-625.98 943 -627.96 943 -630 943 C-630 942.34 -630 941.68 -630 941 C-630.66 941 -631.32 941 -632 941 C-632 940.34 -632 939.68 -632 939 C-632.66 939 -633.32 939 -634 939 C-634 938.34 -634 937.68 -634 937 C-634.99 937 -635.98 937 -637 937 C-637 935.68 -637 934.36 -637 933 C-637.66 933 -638.32 933 -639 933 C-640.61928726 926.81498313 -641.27971944 921.1072628 -641.21118164 914.72607422 C-641.20989289 913.83246311 -641.20860415 912.93885201 -641.20727634 912.01816177 C-641.20082393 909.03022983 -641.18025754 906.0425563 -641.16015625 903.0546875 C-641.15344811 900.884026 -641.14781372 898.71336096 -641.14315796 896.54269409 C-641.13163873 891.82445065 -641.11461535 887.10627158 -641.09347534 882.38806152 C-641.03943731 869.97891955 -641.02484497 857.56967852 -641.01033998 845.16043854 C-641.00779359 843.05467186 -641.00491327 840.94890583 -641.00198936 838.84313965 C-640.95604366 804.27975868 -641.17497275 769.71855808 -641.42048264 735.1562047 C-641.44321681 731.94166069 -641.46554213 728.72711389 -641.48786235 725.51256698 C-641.72519381 691.35057776 -641.99203328 657.18886504 -642.2890625 623.02734375 C-642.2948883 622.35663959 -642.3007141 621.68593543 -642.30671644 620.9949069 C-642.41322456 608.73402448 -642.52014435 596.47314563 -642.62860107 584.21228027 C-642.96116048 546.474015 -643.14955068 508.73967255 -643 471 C-643.58084854 470.88254425 -644.16169708 470.7650885 -644.76014709 470.64407349 C-649.35647075 469.67581249 -653.60321008 468.5445396 -657.93359375 466.6796875 C-658.98482422 466.23125488 -660.03605469 465.78282227 -661.11914062 465.32080078 C-662.21419922 464.84368652 -663.30925781 464.36657227 -664.4375 463.875 C-665.59056641 463.3785498 -666.74363281 462.88209961 -667.93164062 462.37060547 C-670.2410938 461.37398562 -672.54891733 460.37357971 -674.85498047 459.36914062 C-677.4941736 458.2202045 -680.13802226 457.08358187 -682.78515625 455.953125 C-700.76821489 448.2015946 -718.53991305 439.63132798 -735 429 C-736.45814448 428.11258185 -737.91933056 427.23015051 -739.3828125 426.3515625 C-747.88463734 421.2462374 -756.0799877 415.98345757 -764 410 C-765.76936046 408.72711681 -767.54023641 407.45633799 -769.3125 406.1875 C-776.01849072 401.30607371 -782.53015092 396.18840733 -789 391 C-789.59151855 390.52643066 -790.18303711 390.05286133 -790.79248047 389.56494141 C-792.4932874 388.19705438 -794.18568921 386.81954785 -795.875 385.4375 C-797.35613281 384.22900391 -797.35613281 384.22900391 -798.8671875 382.99609375 C-799.57101562 382.33738281 -800.27484375 381.67867187 -801 381 C-801 380.34 -801 379.68 -801 379 C-801.69480469 378.79761719 -802.38960937 378.59523438 -803.10546875 378.38671875 C-806.97156047 376.53454256 -809.38672178 373.89390013 -812.3125 370.8125 C-813.46674428 369.6243503 -814.62298438 368.43813609 -815.78125 367.25390625 C-816.61269531 366.4033667 -816.61269531 366.4033667 -817.4609375 365.53564453 C-819.32997878 363.67075404 -821.2905491 361.94699451 -823.3125 360.25 C-826.94424918 357.17522076 -829.96410188 353.70899198 -833.0703125 350.11328125 C-834.77389375 348.24761838 -836.46987037 346.69819696 -838.4375 345.125 C-842.44089158 341.83876927 -845.47971932 337.87437607 -848.6953125 333.8359375 C-850.79664015 331.25023602 -852.97961493 328.81171365 -855.25 326.375 C-864.6857648 316.0138362 -872.87359238 304.39807822 -881 293 C-881.710354 292.0090332 -881.710354 292.0090332 -882.43505859 290.99804688 C-884.04414762 288.75160112 -885.6477438 286.50132335 -887.25 284.25 C-887.75797119 283.54037109 -888.26594238 282.83074219 -888.78930664 282.09960938 C-891.80133837 277.84779809 -894.45142194 273.54334037 -897 269 C-898.16672335 267.10828814 -899.35759393 265.23326538 -900.55078125 263.3581543 C-905.39559258 255.74313834 -909.81948796 248.00218184 -914 240 C-914.73010816 238.65014104 -915.46198467 237.30123755 -916.1953125 235.953125 C-921.05786886 226.95565378 -925.61271062 217.82315751 -929.95941162 208.56570435 C-930.78351507 206.81169121 -931.61453431 205.06093252 -932.44580078 203.31030273 C-936.2831995 195.04792967 -939.21497356 186.66515426 -942 178 C-942.81542332 175.62676994 -943.63698143 173.25563835 -944.46484375 170.88671875 C-949.30993245 156.8505383 -953.42037784 142.92517012 -956.5625 128.39453125 C-958.02887909 121.6725915 -959.84415106 115.06421666 -961.6875 108.4375 C-966.74336259 90.0774533 -969.17370804 72.42713038 -969.09765625 53.36328125 C-969.09664917 52.15555054 -969.09564209 50.94781982 -969.09460449 49.70349121 C-969.09154488 47.07115042 -969.08644518 44.43891156 -969.07807255 41.80659199 C-969.05700068 34.72513253 -969.04377517 27.64365528 -969.02952576 20.56217957 C-969.02664417 19.14512936 -969.02375885 17.72807915 -969.02086973 16.31102896 C-969.01387025 12.87401939 -969.00692103 9.43700973 -969 6 C-918.50234952 5.22813002 -868.00583784 4.72994052 -817.50363455 4.37915201 C-807.21228574 4.307552 -796.92095902 4.23296386 -786.62963193 4.15831886 C-765.60819594 4.00593006 -744.58673965 3.85650112 -723.56527466 3.70817363 C-707.41539957 3.59421631 -691.26552878 3.47966919 -675.11566162 3.36459351 C-673.38509439 3.35226304 -673.38509439 3.35226304 -671.6195662 3.33968347 C-651.77963521 3.19830391 -631.93970573 3.056713 -612.09977722 2.91498572 C-600.4719226 2.83192946 -588.84406707 2.74900522 -577.21620941 2.66637611 C-522.0549791 2.27431581 -466.89394897 1.86606164 -411.73316852 1.41501415 C-386.69714306 1.21039323 -361.66108501 1.00969772 -336.625 0.8125 C-335.61753449 0.80455859 -335.61753449 0.80455859 -334.58971614 0.79645675 C-229.80135997 -0.02912549 -125.01953641 -0.23527117 0 0 Z " fill="#FFFFFF" transform="translate(1086,516)"/>
<path d="M0 0 C5.83903152 -0.04174617 9.66947602 0.42428322 14.32017517 4.03330994 C18.84861702 9.67423027 19.44582682 15.13644177 19.38267517 22.13487244 C19.37393428 23.64211415 19.36540099 25.14935708 19.35704041 26.65660095 C19.35082672 27.46606171 19.34461304 28.27552246 19.33821106 29.10951233 C19.20966141 47.27590557 19.4287509 65.43257608 19.75767517 83.59580994 C19.79127136 85.46326874 19.79127136 85.46326874 19.82554626 87.36845398 C20.1356625 104.42842112 20.49811413 121.48705358 20.88240051 138.54548645 C21.16832683 151.34016572 21.3908675 164.13517687 21.57017517 176.93174744 C21.58065384 177.67803909 21.59113251 178.42433075 21.60192871 179.1932373 C21.7059131 186.62904304 21.8067804 194.06488156 21.90110016 201.50081635 C22.13785769 220.07186453 22.49458351 238.63790045 22.91966248 257.20558167 C23.42174551 279.18189363 23.84279622 301.15965169 24.25625992 323.13778687 C24.32137373 326.59698373 24.38678588 330.05617487 24.45222473 333.5153656 C25.04047815 364.66589566 25.57199515 395.81637331 25.99375916 426.96958923 C26.2654267 446.96396858 26.61184049 466.95619963 27.01573181 486.948349 C27.03619568 487.98821457 27.05665955 489.02808014 27.07774353 490.09945679 C27.11486209 491.98234774 27.15318957 493.86521562 27.19322205 495.74804688 C27.29445456 500.91983561 27.32018917 506.08682657 27.30430603 511.2596283 C27.28402469 520.88553112 27.49028001 530.50612238 27.69056702 540.12953949 C27.75948439 543.44856587 27.82612447 546.76763152 27.89219666 550.0867157 C28.0802133 559.51331412 28.27191677 568.93983585 28.46568298 578.36631775 C28.58479132 584.16844353 28.70107596 589.97062096 28.81581116 595.77283478 C28.85939625 597.94909045 28.90400376 600.12532595 28.94978333 602.30153656 C29.29846901 618.88576746 29.32017517 635.43927829 29.32017517 652.03330994 C166.93017517 652.03330994 304.54017517 652.03330994 446.32017517 652.03330994 C446.32017517 652.69330994 446.32017517 653.35330994 446.32017517 654.03330994 C447.64017517 654.03330994 448.96017517 654.03330994 450.32017517 654.03330994 C450.32017517 654.69330994 450.32017517 655.35330994 450.32017517 656.03330994 C450.95955017 656.30143494 451.59892517 656.56955994 452.25767517 656.84580994 C454.32017517 658.03330994 454.32017517 658.03330994 455.32017517 661.03330994 C455.98017517 661.03330994 456.64017517 661.03330994 457.32017517 661.03330994 C457.32017517 760.36330994 457.32017517 859.69330994 457.32017517 962.03330994 C456.66017517 962.03330994 456.00017517 962.03330994 455.32017517 962.03330994 C455.32017517 963.02330994 455.32017517 964.01330994 455.32017517 965.03330994 C454.66017517 965.03330994 454.00017517 965.03330994 453.32017517 965.03330994 C453.32017517 965.69330994 453.32017517 966.35330994 453.32017517 967.03330994 C452.66017517 967.03330994 452.00017517 967.03330994 451.32017517 967.03330994 C451.32017517 967.69330994 451.32017517 968.35330994 451.32017517 969.03330994 C449.45259727 969.70030204 447.57539375 970.34033091 445.69517517 970.97080994 C444.65103455 971.33045837 443.60689392 971.69010681 442.53111267 972.06065369 C432.15120297 974.89138921 420.58511343 974.17108283 409.91842651 974.10214233 C408.52190689 974.09699959 407.12538546 974.0923285 405.72886282 974.08808094 C401.92811344 974.07522671 398.1274211 974.05592098 394.32670581 974.03551447 C390.20494094 974.01458306 386.08315331 973.99985917 381.96136475 973.98445129 C374.80060222 973.95695534 367.63986234 973.92590397 360.47912407 973.89271355 C348.99261846 973.83973493 337.50608424 973.79718347 326.01953125 973.75598145 C322.05190539 973.74161596 318.08427983 973.72716886 314.1166544 973.71268559 C313.12421108 973.70906337 312.13176776 973.70544115 311.10925041 973.70170916 C299.80642288 973.66027891 288.5036053 973.61637311 277.20079041 973.57164001 C275.65321262 973.56551891 275.65321262 973.56551891 274.07437063 973.55927414 C259.71871958 973.5023091 245.36308979 973.44123681 231.00746568 973.37787576 C206.120863 973.26821288 181.234237 973.17137448 156.34751892 973.09190369 C155.36901913 973.08873026 154.39051933 973.08555684 153.38236803 973.08228725 C91.05553871 972.88113801 28.7568778 973.22745632 -33.56118774 974.29953003 C-34.59936806 974.31734263 -34.59936806 974.31734263 -35.65852171 974.33551508 C-42.6703914 974.45608959 -49.68214901 974.58084055 -56.69373131 974.71724892 C-70.89985116 974.98628334 -85.09825111 975.07375054 -99.30692291 975.04026699 C-107.75682278 975.02223415 -116.20372581 975.12649422 -124.65248108 975.25205994 C-126.28947664 975.27469328 -127.92647525 975.29710712 -129.56347656 975.31932068 C-133.77554205 975.37686119 -137.98757479 975.43647685 -142.19960022 975.49687195 C-149.76719216 975.60531776 -157.33481661 975.7113009 -164.90248108 975.81455994 C-165.71072956 975.82567432 -166.51897804 975.83678871 -167.3517189 975.8482399 C-175.81430065 975.9634217 -184.27486743 976.06401043 -192.73841858 976.02549744 C-201.08927044 975.98825854 -209.43572193 976.13038546 -217.78486824 976.27976227 C-220.17561187 976.32229748 -222.566376 976.36338185 -224.95715332 976.40397644 C-225.75348395 976.417533 -226.54981459 976.43108955 -227.37027645 976.44505692 C-228.99761887 976.47275997 -230.62496173 976.50043665 -232.25230503 976.52808762 C-236.3963914 976.59922286 -240.54034407 976.6743745 -244.68421936 976.75694275 C-248.7596137 976.83785241 -252.83507307 976.90787139 -256.91078186 976.97088242 C-258.441615 976.99648229 -259.9723897 977.02592268 -261.50306702 977.05957413 C-272.20838446 977.2924574 -282.68544546 977.31539036 -292.67982483 973.03330994 C-292.67982483 972.37330994 -292.67982483 971.71330994 -292.67982483 971.03330994 C-293.66982483 970.70330994 -294.65982483 970.37330994 -295.67982483 970.03330994 C-296.99623108 967.99424744 -296.99623108 967.99424744 -298.24232483 965.40830994 C-298.86300842 964.151474 -298.86300842 964.151474 -299.49623108 962.86924744 C-302.24116958 956.29226608 -302.9640735 950.79839836 -302.89100647 943.73814392 C-302.88971489 942.82198146 -302.88842331 941.905819 -302.88709259 940.96189404 C-302.88062864 937.90095978 -302.86008744 934.84027628 -302.83998108 931.77940369 C-302.83332978 929.57948591 -302.82773661 927.37956471 -302.82312012 925.17964172 C-302.81172536 920.43760419 -302.79480183 915.69563218 -302.77357483 910.95362854 C-302.71745184 898.14952314 -302.70080039 885.3453293 -302.68373108 872.54112244 C-302.68168106 871.20035869 -302.67961725 869.85959496 -302.67753983 868.51883125 C-302.63477611 839.55806232 -302.86132513 810.60119546 -303.14294052 781.64179993 C-303.25192075 770.42597706 -303.35727932 759.21011938 -303.46107483 747.99424744 C-303.47197584 746.82210945 -303.48287685 745.64997147 -303.4941082 744.44231415 C-303.66831064 725.52166898 -303.72860694 706.60576687 -303.66957092 687.68437195 C-303.57648689 654.39764573 -303.97579664 621.11156494 -304.2886734 587.82671165 C-304.33552627 582.83267064 -304.38156118 577.83862216 -304.42764282 572.84457397 C-304.45974451 569.42126781 -304.49346975 565.99798063 -304.52735901 562.57469177 C-304.63424185 551.37178835 -304.69097651 540.17058405 -304.67982483 528.96714783 C-304.6655116 514.41205609 -304.75485328 499.85851105 -304.86502075 485.30397034 C-304.899914 480.69382109 -304.93298477 476.08365967 -304.96583557 471.47349548 C-305.0535361 459.20253708 -305.14347295 446.93159527 -305.23444223 434.66066068 C-305.31178691 424.22238975 -305.38765222 413.78410924 -305.46107483 403.34580994 C-305.46662573 402.55827623 -305.47217663 401.77074252 -305.47789574 400.95934415 C-305.60667946 382.60749978 -305.71245564 364.25680883 -305.67982483 345.90440369 C-305.64452233 325.91668902 -305.76647773 305.93062162 -305.89857483 285.94346619 C-305.90414068 285.09954638 -305.90970653 284.25562657 -305.91544104 283.38613343 C-305.94404471 279.05160841 -305.9727431 274.71708401 -306.00146675 270.38255978 C-306.00726698 269.50712926 -306.01306721 268.63169874 -306.01904321 267.72974002 C-306.03089905 265.94199259 -306.04277484 264.15424529 -306.0546701 262.36649811 C-306.22415151 236.86063544 -306.36384031 211.35460577 -306.49906921 185.84854126 C-306.50409765 184.90015359 -306.50912609 183.95176592 -306.5143069 182.97463924 C-306.53448343 179.16573817 -306.55464646 175.35683705 -306.57466102 171.54793513 C-306.62744791 161.50718795 -306.68205875 151.46646037 -306.74415588 141.42576599 C-306.74945761 140.56820243 -306.75475934 139.71063887 -306.76022172 138.82708853 C-306.77082711 137.11343216 -306.78143332 135.3997758 -306.79204035 133.68611944 C-306.88575173 118.51253418 -306.96224084 103.3390207 -307.00806046 88.16520977 C-307.03266974 80.16357123 -307.07136396 72.162288 -307.12970531 64.16082263 C-307.17215848 58.11901641 -307.18807803 52.07744598 -307.19365311 46.0354805 C-307.19995932 43.59100189 -307.21476028 41.1465274 -307.23890305 38.70215988 C-307.27035381 35.38625597 -307.2707169 32.07173437 -307.26332092 28.75572205 C-307.27972878 27.80692201 -307.29613663 26.85812197 -307.31304169 25.88057041 C-307.24940068 19.04519618 -305.49678481 13.73982581 -301.67982483 8.03330994 C-296.36565959 2.98316897 -290.52392927 2.87667418 -283.55653381 2.84385681 C-282.61217846 2.83554085 -281.6678231 2.82722488 -280.69485092 2.81865692 C-277.52189221 2.79186316 -274.34892715 2.7720103 -271.17591858 2.75205994 C-268.91503555 2.73427233 -266.65415603 2.71603288 -264.39328003 2.69737244 C-259.52588019 2.65807561 -254.65847048 2.62176762 -249.79103088 2.5877533 C-242.06283909 2.53363772 -234.3347119 2.47260598 -226.60658264 2.41026306 C-218.61302922 2.34607607 -210.61947476 2.28219179 -202.62590027 2.22068787 C-177.16684704 2.02467756 -151.70806528 1.80276243 -126.24937439 1.56435776 C-122.93224752 1.5333326 -119.61511834 1.50256473 -116.29798889 1.47181702 C-85.18396545 1.18224885 -54.07176722 0.81899452 -22.96009827 0.33799744 C-21.94864604 0.32242342 -21.94864604 0.32242342 -20.91676044 0.30653477 C-17.83342269 0.25895808 -14.75010491 0.21047607 -11.66680908 0.1602478 C-7.77795129 0.09867252 -3.88903974 0.04834035 0 0 Z " fill="#FECD0D" transform="translate(2518.6798248291016,498.96669006347656)"/>
<path d="M0 0 C126.06 0 252.12 0 382 0 C382 0.66 382 1.32 382 2 C383.32 2 384.64 2 386 2 C386 2.66 386 3.32 386 4 C386.639375 4.268125 387.27875 4.53625 387.9375 4.8125 C390 6 390 6 391 9 C391.66 9 392.32 9 393 9 C393 108.33 393 207.66 393 310 C392.34 310 391.68 310 391 310 C391 310.99 391 311.98 391 313 C390.34 313 389.68 313 389 313 C389.16265854 312.06160121 389.32531708 311.12320242 389.49290466 310.1563673 C390.18475953 305.2737203 390.13177369 300.42106748 390.11352539 295.49812317 C390.11367425 294.452697 390.11382311 293.40727084 390.11397648 292.33016509 C390.113283 288.83312652 390.10544492 285.33614074 390.09765625 281.83911133 C390.09573661 279.32868988 390.09427303 276.81826804 390.0932312 274.30784607 C390.0900704 268.90210534 390.08391379 263.49638106 390.07516479 258.09064674 C390.06257554 250.25316383 390.05652533 242.41568595 390.05223143 234.57819458 C390.04516613 221.83248054 390.03436992 209.08677284 390.02050781 196.34106445 C390.01968 195.57869056 390.01885219 194.81631667 390.01799929 194.03084054 C390.01126253 187.85304573 390.00434411 181.67525113 389.99739647 175.49745655 C389.99134823 170.11622438 389.98536568 164.73499213 389.97949219 159.35375977 C389.97825 158.21751317 389.97825 158.21751317 389.97698271 157.0583121 C389.96324035 144.3747366 389.95351022 131.69116099 389.94658184 119.00757998 C389.94212789 111.20312094 389.93414494 103.39868121 389.92143703 95.59423115 C389.91192226 89.5913782 389.90764915 83.58853283 389.9051857 77.58567238 C389.90332964 75.14136558 389.89976123 72.69705932 389.89425278 70.25275803 C389.86498711 56.8315367 390.08138209 43.48364334 390.88191414 30.0851711 C391.85641961 17.38737286 391.85641961 17.38737286 387 6 C382.47048984 3.39825553 377.74617772 3.70044022 372.67333984 3.69702148 C371.73510376 3.68856233 370.79686768 3.68010317 369.8302002 3.67138767 C366.70710648 3.64546283 363.58411234 3.63335683 360.4609375 3.62109375 C358.25378756 3.60516253 356.04664419 3.58829821 353.83950806 3.57055664 C349.13732714 3.53446581 344.43516038 3.50422617 339.73291016 3.47872925 C328.62209581 3.41835495 317.51147894 3.33070177 306.4008255 3.24638557 C302.71121292 3.21875206 299.021593 3.19235426 295.33197021 3.16612244 C282.37901776 3.07201156 269.42783844 2.94961017 256.4765625 2.71875 C255.80943741 2.7069124 255.14231232 2.69507481 254.45497131 2.68287849 C251.22642949 2.62517391 247.99791601 2.56600656 244.76940918 2.50637817 C214.81539393 1.95903036 184.87016731 1.96179747 154.91195679 2.00997925 C119.37608752 2.06507375 83.84661718 1.85030445 48.3125 1.5 C46.47781033 1.4819632 46.47781033 1.4819632 44.60605621 1.46356201 C29.73728638 1.31684847 14.86860459 1.1625834 0 1 C0 0.67 0 0.34 0 0 Z " fill="#DFC14A" transform="translate(2583,1151)"/>
<path d="M0 0 C0.33 0 0.66 0 1 0 C1 34.98 1 69.96 1 106 C0.67 106 0.34 106 0 106 C-7.14019193 72.65599693 -3.95437588 33.74656696 0 0 Z " fill="#DFC149" transform="translate(2967,1301)"/>
<path d="M0 0 C3.63 0.66 7.26 1.32 11 2 C11.33 3.32 11.66 4.64 12 6 C10.5437455 6.67119549 9.08492133 7.33681807 7.625 8 C6.40683594 8.556875 6.40683594 8.556875 5.1640625 9.125 C3 10 3 10 1 10 C-0.1577506 6.52674819 -0.06866652 3.63932552 0 0 Z " fill="#4D82B8" transform="translate(1069,467)"/>
<path d="M0 0 C3 1 3 1 3 1 Z " fill="#4D82B8" transform="translate(1078,488)"/>
<path d="M0 0 C2 1 2 1 2 1 Z " fill="#4D82B8" transform="translate(1075,489)"/>
<path d="M0 0 C2 1 2 1 2 1 Z " fill="#4D82B8" transform="translate(1081,487)"/>
</svg>
